# xmcd CD database file
#
# Track frame offsets:
#	150
#	13280
#	35833
#	52303
#	77978
#	99270
#	114058
#	133333
#	151148
#	174425
#	196085
#	222125
#	247140
#	261625
#	276135
#	296253
#	316113
#
# Disc length: 4523 seconds
#
# Revision: 0
# Processed by: cddbd v1.5PL3 Copyright (c) Steve Scherf et al.
# Submitted via: CDex 1.50
#
DISCID=f811a911
DTITLE=nanan etc. - Slow Music Style - day
DYEAR=2002
DGENRE=
TTITLE0=Nanan - Up Up and Away -ANA Version-
TTITLE1=Ju Ju (Featuring Katreese Barnes) - This Feels Like Love
TTITLE2=Deniela Spielmann - Isto Aqui o Que e^
TTITLE3=Romero Lubambo - By The Brook
TTITLE4=Mondo Candido - Stupide Parole
TTITLE5=nanan - Mas Que Nada
TTITLE6=Rie Akagi - Soul Bossa Nova
TTITLE7=Pamela Driggs - Take Five
TTITLE8=Masayuki Iwata - How Deep Is Your Love
TTITLE9=garp - 10 cents a dance
TTITLE10=paris match (feat. TOKU) - There's Nothing Like This
TTITLE11=Satoshi Sano - Live Island
TTITLE12=Motoya Hamaguchi - Underneath the Mango Tree
TTITLE13=Mark Yim and The Blue Hawaiian Band - Blue Hawaiian Moonlight
TTITLE14=Ken Morimura - La Puerta
TTITLE15=Chuei Yoshikawa - Moulin Rouge
TTITLE16=Philippe Saisse Acoustique Trio - Summer Breeze
EXTD=YEAR: 2002.11.01
EXTT0=
EXTT1=
EXTT2=
EXTT3=
EXTT4=
EXTT5=
EXTT6=
EXTT7=
EXTT8=
EXTT9=
EXTT10=
EXTT11=
EXTT12=
EXTT13=
EXTT14=
EXTT15=
EXTT16=
PLAYORDER=
